<svg width="146" height="146" viewBox="0 0 146 146" fill="none" xmlns="http://www.w3.org/2000/svg">
<rect width="146" height="146" rx="25" fill="white"/>
<path d="M73.015 119.664C68.0657 119.664 63.7563 118.512 60.087 116.208C56.503 113.904 53.9857 110.747 52.535 106.736L24.375 28.4H53.047L72.119 92.272C72.2897 92.6133 72.4177 92.912 72.503 93.168C72.6737 93.3387 72.8443 93.424 73.015 93.424C73.271 93.424 73.4843 93.3387 73.655 93.168C73.8257 92.9973 73.9537 92.6987 74.039 92.272L92.727 28.4H121.655L93.623 106.736C92.2577 110.747 89.7403 113.904 86.071 116.208C82.4017 118.512 78.0497 119.664 73.015 119.664Z" fill="black"/>
</svg>
