<svg width="1679" height="367" viewBox="0 0 1679 367" fill="none" xmlns="http://www.w3.org/2000/svg">
<rect width="367" height="367" rx="25" fill="black"/>
<path d="M496.703 284L445.183 79.6H481.303L512.383 212.88C514.063 219.413 515.556 226.507 516.863 234.16C518.356 241.627 519.476 247.6 520.223 252.08C520.969 247.6 521.996 241.627 523.303 234.16C524.796 226.507 526.383 219.32 528.063 212.6L558.023 79.6H593.583L542.063 284H496.703ZM624.553 284V252.36H677.193V161.64H630.153V130H712.193V252.36H759.513V284H624.553ZM692.313 104.24C685.22 104.24 679.62 102.467 675.513 98.92C671.407 95.1867 669.353 90.24 669.353 84.08C669.353 77.92 671.407 73.0667 675.513 69.52C679.62 65.7867 685.22 63.92 692.313 63.92C699.407 63.92 705.007 65.7867 709.113 69.52C713.22 73.0667 715.273 77.92 715.273 84.08C715.273 90.24 713.22 95.1867 709.113 98.92C705.007 102.467 699.407 104.24 692.313 104.24ZM792.444 284V252.36H845.084V161.64H798.044V130H880.084V252.36H927.404V284H792.444ZM860.204 104.24C853.111 104.24 847.511 102.467 843.404 98.92C839.297 95.1867 837.244 90.24 837.244 84.08C837.244 77.92 839.297 73.0667 843.404 69.52C847.511 65.7867 853.111 63.92 860.204 63.92C867.297 63.92 872.897 65.7867 877.004 69.52C881.111 73.0667 883.164 77.92 883.164 84.08C883.164 90.24 881.111 95.1867 877.004 98.92C872.897 102.467 867.297 104.24 860.204 104.24ZM960.615 284V130H994.775V158.84C996.641 149.133 1001.21 141.48 1008.49 135.88C1015.77 130.093 1025.01 127.2 1036.21 127.2C1051.33 127.2 1063.37 132.24 1072.33 142.32C1081.48 152.4 1086.05 165.933 1086.05 182.92V284H1051.05V187.12C1051.05 177.6 1048.53 170.32 1043.49 165.28C1038.64 160.053 1032.01 157.44 1023.61 157.44C1014.84 157.44 1007.93 160.053 1002.89 165.28C998.041 170.507 995.615 177.973 995.615 187.68V284H960.615ZM1193.47 286.8C1180.21 286.8 1168.64 284.373 1158.75 279.52C1149.04 274.48 1141.48 267.48 1136.07 258.52C1130.65 249.373 1127.95 238.64 1127.95 226.32V187.68C1127.95 175.36 1130.65 164.72 1136.07 155.76C1141.48 146.613 1149.04 139.613 1158.75 134.76C1168.64 129.72 1180.21 127.2 1193.47 127.2C1212.69 127.2 1228.09 132.24 1239.67 142.32C1251.43 152.213 1257.59 165.747 1258.15 182.92H1223.71C1223.15 174.893 1220.07 168.733 1214.47 164.44C1209.05 159.96 1202.05 157.72 1193.47 157.72C1183.95 157.72 1176.48 160.333 1171.07 165.56C1165.65 170.6 1162.95 177.88 1162.95 187.4V226.32C1162.95 235.84 1165.65 243.213 1171.07 248.44C1176.48 253.667 1183.95 256.28 1193.47 256.28C1202.24 256.28 1209.33 254.133 1214.75 249.84C1220.16 245.36 1223.15 239.107 1223.71 231.08H1258.15C1257.59 248.253 1251.43 261.88 1239.67 271.96C1228.09 281.853 1212.69 286.8 1193.47 286.8ZM1296.4 284V130H1330.56V158.84C1332.42 149.133 1337 141.48 1344.28 135.88C1351.56 130.093 1360.8 127.2 1372 127.2C1387.12 127.2 1399.16 132.24 1408.12 142.32C1417.26 152.4 1421.84 165.933 1421.84 182.92V284H1386.84V187.12C1386.84 177.6 1384.32 170.32 1379.28 165.28C1374.42 160.053 1367.8 157.44 1359.4 157.44C1350.62 157.44 1343.72 160.053 1338.68 165.28C1333.82 170.507 1331.4 177.973 1331.4 187.68V284H1296.4ZM1542.13 284C1527.75 284 1516.27 279.893 1507.69 271.68C1499.29 263.28 1495.09 251.987 1495.09 237.8V161.64H1452.53V130H1495.09V86.6H1530.37V130H1591.69V161.64H1530.37V236.96C1530.37 241.44 1531.58 245.173 1534.01 248.16C1536.62 250.96 1540.17 252.36 1544.65 252.36H1590.29V284H1542.13Z" fill="black"/>
<path d="M183.538 300.16C171.164 300.16 160.391 297.28 151.218 291.52C142.258 285.76 135.964 277.867 132.338 267.84L61.9375 72H133.618L181.298 231.68C181.724 232.533 182.044 233.28 182.258 233.92C182.684 234.347 183.111 234.56 183.538 234.56C184.178 234.56 184.711 234.347 185.138 233.92C185.564 233.493 185.884 232.747 186.098 231.68L232.818 72H305.138L235.058 267.84C231.644 277.867 225.351 285.76 216.178 291.52C207.004 297.28 196.124 300.16 183.538 300.16Z" fill="white"/>
</svg>
